<svg xmlns="http://www.w3.org/2000/svg" viewBox="0 0 1247.50 644.26">
  <style>
    .key-bg { fill: #f5f5f5; stroke: #d4d4d4; stroke-width: 1; }
    .key-index { fill: #171717; font-family: ui-monospace, SFMono-Regular, "SF Mono", Menlo, Consolas, "Liberation Mono", monospace; font-weight: 700; text-anchor: middle; dominant-baseline: central; }
    .key-part { font-family: system-ui, -apple-system, BlinkMacSystemFont, "Segoe UI", Roboto, sans-serif; text-anchor: middle; dominant-baseline: central; }
    @media (prefers-color-scheme: dark) {
      .key-bg { fill: #2a2a2a; stroke: #404040; }
      .key-index { fill: #e5e5e5; }
    }
    .key-bg.part-0 { stroke: #f59e0b; }
    .key-part.part-0 { fill: #f59e0b; }
    .key-bg.part-1 { stroke: #14b8a6; }
    .key-part.part-1 { fill: #14b8a6; }
  </style>
  <g>
    <path class="key-bg part-0" d="M 26.00,57.00 L 84.00,57.00 Q 88.00,57.00 88.00,61.00 L 88.00,119.00 Q 88.00,123.00 84.00,123.00 L 26.00,123.00 Q 22.00,123.00 22.00,119.00 L 22.00,61.00 Q 22.00,57.00 26.00,57.00 Z" />
    <path class="key-bg part-0" d="M 96.00,57.00 L 154.00,57.00 Q 158.00,57.00 158.00,61.00 L 158.00,119.00 Q 158.00,123.00 154.00,123.00 L 96.00,123.00 Q 92.00,123.00 92.00,119.00 L 92.00,61.00 Q 92.00,57.00 96.00,57.00 Z" />
    <path class="key-bg part-0" d="M 166.00,39.50 L 224.00,39.50 Q 228.00,39.50 228.00,43.50 L 228.00,101.50 Q 228.00,105.50 224.00,105.50 L 166.00,105.50 Q 162.00,105.50 162.00,101.50 L 162.00,43.50 Q 162.00,39.50 166.00,39.50 Z" />
    <path class="key-bg part-0" d="M 236.00,22.00 L 294.00,22.00 Q 298.00,22.00 298.00,26.00 L 298.00,84.00 Q 298.00,88.00 294.00,88.00 L 236.00,88.00 Q 232.00,88.00 232.00,84.00 L 232.00,26.00 Q 232.00,22.00 236.00,22.00 Z" />
    <path class="key-bg part-0" d="M 306.00,22.00 L 364.00,22.00 Q 368.00,22.00 368.00,26.00 L 368.00,84.00 Q 368.00,88.00 364.00,88.00 L 306.00,88.00 Q 302.00,88.00 302.00,84.00 L 302.00,26.00 Q 302.00,22.00 306.00,22.00 Z" />
    <path class="key-bg part-0" d="M 376.00,22.00 L 434.00,22.00 Q 438.00,22.00 438.00,26.00 L 438.00,84.00 Q 438.00,88.00 434.00,88.00 L 376.00,88.00 Q 372.00,88.00 372.00,84.00 L 372.00,26.00 Q 372.00,22.00 376.00,22.00 Z" />
    <path class="key-bg part-1" d="M 813.50,22.00 L 871.50,22.00 Q 875.50,22.00 875.50,26.00 L 875.50,84.00 Q 875.50,88.00 871.50,88.00 L 813.50,88.00 Q 809.50,88.00 809.50,84.00 L 809.50,26.00 Q 809.50,22.00 813.50,22.00 Z" />
    <path class="key-bg part-1" d="M 883.50,22.00 L 941.50,22.00 Q 945.50,22.00 945.50,26.00 L 945.50,84.00 Q 945.50,88.00 941.50,88.00 L 883.50,88.00 Q 879.50,88.00 879.50,84.00 L 879.50,26.00 Q 879.50,22.00 883.50,22.00 Z" />
    <path class="key-bg part-1" d="M 953.50,22.00 L 1011.50,22.00 Q 1015.50,22.00 1015.50,26.00 L 1015.50,84.00 Q 1015.50,88.00 1011.50,88.00 L 953.50,88.00 Q 949.50,88.00 949.50,84.00 L 949.50,26.00 Q 949.50,22.00 953.50,22.00 Z" />
    <path class="key-bg part-1" d="M 1023.50,39.50 L 1081.50,39.50 Q 1085.50,39.50 1085.50,43.50 L 1085.50,101.50 Q 1085.50,105.50 1081.50,105.50 L 1023.50,105.50 Q 1019.50,105.50 1019.50,101.50 L 1019.50,43.50 Q 1019.50,39.50 1023.50,39.50 Z" />
    <path class="key-bg part-1" d="M 1093.50,57.00 L 1151.50,57.00 Q 1155.50,57.00 1155.50,61.00 L 1155.50,119.00 Q 1155.50,123.00 1151.50,123.00 L 1093.50,123.00 Q 1089.50,123.00 1089.50,119.00 L 1089.50,61.00 Q 1089.50,57.00 1093.50,57.00 Z" />
    <path class="key-bg part-1" d="M 1163.50,57.00 L 1221.50,57.00 Q 1225.50,57.00 1225.50,61.00 L 1225.50,119.00 Q 1225.50,123.00 1221.50,123.00 L 1163.50,123.00 Q 1159.50,123.00 1159.50,119.00 L 1159.50,61.00 Q 1159.50,57.00 1163.50,57.00 Z" />
    <path class="key-bg part-0" d="M 26.00,127.00 L 84.00,127.00 Q 88.00,127.00 88.00,131.00 L 88.00,189.00 Q 88.00,193.00 84.00,193.00 L 26.00,193.00 Q 22.00,193.00 22.00,189.00 L 22.00,131.00 Q 22.00,127.00 26.00,127.00 Z" />
    <path class="key-bg part-0" d="M 96.00,127.00 L 154.00,127.00 Q 158.00,127.00 158.00,131.00 L 158.00,189.00 Q 158.00,193.00 154.00,193.00 L 96.00,193.00 Q 92.00,193.00 92.00,189.00 L 92.00,131.00 Q 92.00,127.00 96.00,127.00 Z" />
    <path class="key-bg part-0" d="M 166.00,109.50 L 224.00,109.50 Q 228.00,109.50 228.00,113.50 L 228.00,171.50 Q 228.00,175.50 224.00,175.50 L 166.00,175.50 Q 162.00,175.50 162.00,171.50 L 162.00,113.50 Q 162.00,109.50 166.00,109.50 Z" />
    <path class="key-bg part-0" d="M 236.00,92.00 L 294.00,92.00 Q 298.00,92.00 298.00,96.00 L 298.00,154.00 Q 298.00,158.00 294.00,158.00 L 236.00,158.00 Q 232.00,158.00 232.00,154.00 L 232.00,96.00 Q 232.00,92.00 236.00,92.00 Z" />
    <path class="key-bg part-0" d="M 306.00,92.00 L 364.00,92.00 Q 368.00,92.00 368.00,96.00 L 368.00,154.00 Q 368.00,158.00 364.00,158.00 L 306.00,158.00 Q 302.00,158.00 302.00,154.00 L 302.00,96.00 Q 302.00,92.00 306.00,92.00 Z" />
    <path class="key-bg part-0" d="M 376.00,92.00 L 434.00,92.00 Q 438.00,92.00 438.00,96.00 L 438.00,154.00 Q 438.00,158.00 434.00,158.00 L 376.00,158.00 Q 372.00,158.00 372.00,154.00 L 372.00,96.00 Q 372.00,92.00 376.00,92.00 Z" />
    <path class="key-bg part-1" d="M 813.50,92.00 L 871.50,92.00 Q 875.50,92.00 875.50,96.00 L 875.50,154.00 Q 875.50,158.00 871.50,158.00 L 813.50,158.00 Q 809.50,158.00 809.50,154.00 L 809.50,96.00 Q 809.50,92.00 813.50,92.00 Z" />
    <path class="key-bg part-1" d="M 883.50,92.00 L 941.50,92.00 Q 945.50,92.00 945.50,96.00 L 945.50,154.00 Q 945.50,158.00 941.50,158.00 L 883.50,158.00 Q 879.50,158.00 879.50,154.00 L 879.50,96.00 Q 879.50,92.00 883.50,92.00 Z" />
    <path class="key-bg part-1" d="M 953.50,92.00 L 1011.50,92.00 Q 1015.50,92.00 1015.50,96.00 L 1015.50,154.00 Q 1015.50,158.00 1011.50,158.00 L 953.50,158.00 Q 949.50,158.00 949.50,154.00 L 949.50,96.00 Q 949.50,92.00 953.50,92.00 Z" />
    <path class="key-bg part-1" d="M 1023.50,109.50 L 1081.50,109.50 Q 1085.50,109.50 1085.50,113.50 L 1085.50,171.50 Q 1085.50,175.50 1081.50,175.50 L 1023.50,175.50 Q 1019.50,175.50 1019.50,171.50 L 1019.50,113.50 Q 1019.50,109.50 1023.50,109.50 Z" />
    <path class="key-bg part-1" d="M 1093.50,127.00 L 1151.50,127.00 Q 1155.50,127.00 1155.50,131.00 L 1155.50,189.00 Q 1155.50,193.00 1151.50,193.00 L 1093.50,193.00 Q 1089.50,193.00 1089.50,189.00 L 1089.50,131.00 Q 1089.50,127.00 1093.50,127.00 Z" />
    <path class="key-bg part-1" d="M 1163.50,127.00 L 1221.50,127.00 Q 1225.50,127.00 1225.50,131.00 L 1225.50,189.00 Q 1225.50,193.00 1221.50,193.00 L 1163.50,193.00 Q 1159.50,193.00 1159.50,189.00 L 1159.50,131.00 Q 1159.50,127.00 1163.50,127.00 Z" />
    <path class="key-bg part-0" d="M 26.00,197.00 L 84.00,197.00 Q 88.00,197.00 88.00,201.00 L 88.00,259.00 Q 88.00,263.00 84.00,263.00 L 26.00,263.00 Q 22.00,263.00 22.00,259.00 L 22.00,201.00 Q 22.00,197.00 26.00,197.00 Z" />
    <path class="key-bg part-0" d="M 96.00,197.00 L 154.00,197.00 Q 158.00,197.00 158.00,201.00 L 158.00,259.00 Q 158.00,263.00 154.00,263.00 L 96.00,263.00 Q 92.00,263.00 92.00,259.00 L 92.00,201.00 Q 92.00,197.00 96.00,197.00 Z" />
    <path class="key-bg part-0" d="M 166.00,179.50 L 224.00,179.50 Q 228.00,179.50 228.00,183.50 L 228.00,241.50 Q 228.00,245.50 224.00,245.50 L 166.00,245.50 Q 162.00,245.50 162.00,241.50 L 162.00,183.50 Q 162.00,179.50 166.00,179.50 Z" />
    <path class="key-bg part-0" d="M 236.00,162.00 L 294.00,162.00 Q 298.00,162.00 298.00,166.00 L 298.00,224.00 Q 298.00,228.00 294.00,228.00 L 236.00,228.00 Q 232.00,228.00 232.00,224.00 L 232.00,166.00 Q 232.00,162.00 236.00,162.00 Z" />
    <path class="key-bg part-0" d="M 306.00,162.00 L 364.00,162.00 Q 368.00,162.00 368.00,166.00 L 368.00,224.00 Q 368.00,228.00 364.00,228.00 L 306.00,228.00 Q 302.00,228.00 302.00,224.00 L 302.00,166.00 Q 302.00,162.00 306.00,162.00 Z" />
    <path class="key-bg part-0" d="M 376.00,162.00 L 434.00,162.00 Q 438.00,162.00 438.00,166.00 L 438.00,224.00 Q 438.00,228.00 434.00,228.00 L 376.00,228.00 Q 372.00,228.00 372.00,224.00 L 372.00,166.00 Q 372.00,162.00 376.00,162.00 Z" />
    <path class="key-bg part-1" d="M 813.50,162.00 L 871.50,162.00 Q 875.50,162.00 875.50,166.00 L 875.50,224.00 Q 875.50,228.00 871.50,228.00 L 813.50,228.00 Q 809.50,228.00 809.50,224.00 L 809.50,166.00 Q 809.50,162.00 813.50,162.00 Z" />
    <path class="key-bg part-1" d="M 883.50,162.00 L 941.50,162.00 Q 945.50,162.00 945.50,166.00 L 945.50,224.00 Q 945.50,228.00 941.50,228.00 L 883.50,228.00 Q 879.50,228.00 879.50,224.00 L 879.50,166.00 Q 879.50,162.00 883.50,162.00 Z" />
    <path class="key-bg part-1" d="M 953.50,162.00 L 1011.50,162.00 Q 1015.50,162.00 1015.50,166.00 L 1015.50,224.00 Q 1015.50,228.00 1011.50,228.00 L 953.50,228.00 Q 949.50,228.00 949.50,224.00 L 949.50,166.00 Q 949.50,162.00 953.50,162.00 Z" />
    <path class="key-bg part-1" d="M 1023.50,179.50 L 1081.50,179.50 Q 1085.50,179.50 1085.50,183.50 L 1085.50,241.50 Q 1085.50,245.50 1081.50,245.50 L 1023.50,245.50 Q 1019.50,245.50 1019.50,241.50 L 1019.50,183.50 Q 1019.50,179.50 1023.50,179.50 Z" />
    <path class="key-bg part-1" d="M 1093.50,197.00 L 1151.50,197.00 Q 1155.50,197.00 1155.50,201.00 L 1155.50,259.00 Q 1155.50,263.00 1151.50,263.00 L 1093.50,263.00 Q 1089.50,263.00 1089.50,259.00 L 1089.50,201.00 Q 1089.50,197.00 1093.50,197.00 Z" />
    <path class="key-bg part-1" d="M 1163.50,197.00 L 1221.50,197.00 Q 1225.50,197.00 1225.50,201.00 L 1225.50,259.00 Q 1225.50,263.00 1221.50,263.00 L 1163.50,263.00 Q 1159.50,263.00 1159.50,259.00 L 1159.50,201.00 Q 1159.50,197.00 1163.50,197.00 Z" />
    <path class="key-bg part-0" d="M 26.00,267.00 L 84.00,267.00 Q 88.00,267.00 88.00,271.00 L 88.00,329.00 Q 88.00,333.00 84.00,333.00 L 26.00,333.00 Q 22.00,333.00 22.00,329.00 L 22.00,271.00 Q 22.00,267.00 26.00,267.00 Z" />
    <path class="key-bg part-0" d="M 96.00,267.00 L 154.00,267.00 Q 158.00,267.00 158.00,271.00 L 158.00,329.00 Q 158.00,333.00 154.00,333.00 L 96.00,333.00 Q 92.00,333.00 92.00,329.00 L 92.00,271.00 Q 92.00,267.00 96.00,267.00 Z" />
    <path class="key-bg part-0" d="M 166.00,249.50 L 224.00,249.50 Q 228.00,249.50 228.00,253.50 L 228.00,311.50 Q 228.00,315.50 224.00,315.50 L 166.00,315.50 Q 162.00,315.50 162.00,311.50 L 162.00,253.50 Q 162.00,249.50 166.00,249.50 Z" />
    <path class="key-bg part-0" d="M 236.00,232.00 L 294.00,232.00 Q 298.00,232.00 298.00,236.00 L 298.00,294.00 Q 298.00,298.00 294.00,298.00 L 236.00,298.00 Q 232.00,298.00 232.00,294.00 L 232.00,236.00 Q 232.00,232.00 236.00,232.00 Z" />
    <path class="key-bg part-0" d="M 306.00,232.00 L 364.00,232.00 Q 368.00,232.00 368.00,236.00 L 368.00,294.00 Q 368.00,298.00 364.00,298.00 L 306.00,298.00 Q 302.00,298.00 302.00,294.00 L 302.00,236.00 Q 302.00,232.00 306.00,232.00 Z" />
    <path class="key-bg part-0" d="M 376.00,232.00 L 434.00,232.00 Q 438.00,232.00 438.00,236.00 L 438.00,294.00 Q 438.00,298.00 434.00,298.00 L 376.00,298.00 Q 372.00,298.00 372.00,294.00 L 372.00,236.00 Q 372.00,232.00 376.00,232.00 Z" />
    <path class="key-bg part-1" d="M 813.50,232.00 L 871.50,232.00 Q 875.50,232.00 875.50,236.00 L 875.50,294.00 Q 875.50,298.00 871.50,298.00 L 813.50,298.00 Q 809.50,298.00 809.50,294.00 L 809.50,236.00 Q 809.50,232.00 813.50,232.00 Z" />
    <path class="key-bg part-1" d="M 883.50,232.00 L 941.50,232.00 Q 945.50,232.00 945.50,236.00 L 945.50,294.00 Q 945.50,298.00 941.50,298.00 L 883.50,298.00 Q 879.50,298.00 879.50,294.00 L 879.50,236.00 Q 879.50,232.00 883.50,232.00 Z" />
    <path class="key-bg part-1" d="M 953.50,232.00 L 1011.50,232.00 Q 1015.50,232.00 1015.50,236.00 L 1015.50,294.00 Q 1015.50,298.00 1011.50,298.00 L 953.50,298.00 Q 949.50,298.00 949.50,294.00 L 949.50,236.00 Q 949.50,232.00 953.50,232.00 Z" />
    <path class="key-bg part-1" d="M 1023.50,249.50 L 1081.50,249.50 Q 1085.50,249.50 1085.50,253.50 L 1085.50,311.50 Q 1085.50,315.50 1081.50,315.50 L 1023.50,315.50 Q 1019.50,315.50 1019.50,311.50 L 1019.50,253.50 Q 1019.50,249.50 1023.50,249.50 Z" />
    <path class="key-bg part-1" d="M 1093.50,267.00 L 1151.50,267.00 Q 1155.50,267.00 1155.50,271.00 L 1155.50,329.00 Q 1155.50,333.00 1151.50,333.00 L 1093.50,333.00 Q 1089.50,333.00 1089.50,329.00 L 1089.50,271.00 Q 1089.50,267.00 1093.50,267.00 Z" />
    <path class="key-bg part-1" d="M 1163.50,267.00 L 1221.50,267.00 Q 1225.50,267.00 1225.50,271.00 L 1225.50,329.00 Q 1225.50,333.00 1221.50,333.00 L 1163.50,333.00 Q 1159.50,333.00 1159.50,329.00 L 1159.50,271.00 Q 1159.50,267.00 1163.50,267.00 Z" />
    <path class="key-bg part-0" d="M 166.00,319.50 L 224.00,319.50 Q 228.00,319.50 228.00,323.50 L 228.00,381.50 Q 228.00,385.50 224.00,385.50 L 166.00,385.50 Q 162.00,385.50 162.00,381.50 L 162.00,323.50 Q 162.00,319.50 166.00,319.50 Z" />
    <path class="key-bg part-0" d="M 236.00,302.00 L 294.00,302.00 Q 298.00,302.00 298.00,306.00 L 298.00,364.00 Q 298.00,368.00 294.00,368.00 L 236.00,368.00 Q 232.00,368.00 232.00,364.00 L 232.00,306.00 Q 232.00,302.00 236.00,302.00 Z" />
    <path class="key-bg part-0" d="M 330.21,303.84 L 382.78,328.35 Q 386.41,330.04 384.72,333.66 L 315.83,481.39 Q 314.14,485.02 310.51,483.33 L 257.95,458.81 Q 254.32,457.12 256.01,453.50 L 324.90,305.77 Q 326.59,302.14 330.21,303.84 Z" />
    <path class="key-bg part-0" d="M 393.66,333.42 L 446.22,357.93 Q 449.85,359.62 448.16,363.25 L 408.85,447.53 Q 407.16,451.16 403.54,449.47 L 350.97,424.96 Q 347.35,423.27 349.04,419.64 L 388.34,335.35 Q 390.03,331.73 393.66,333.42 Z" />
    <path class="key-bg part-1" d="M 791.60,359.34 L 844.17,334.83 Q 847.79,333.14 849.48,336.76 L 888.79,421.05 Q 890.48,424.68 886.85,426.37 L 834.28,450.88 Q 830.66,452.57 828.97,448.94 L 789.67,364.66 Q 787.98,361.03 791.60,359.34 Z" />
    <path class="key-bg part-1" d="M 855.04,329.76 L 907.61,305.25 Q 911.23,303.56 912.92,307.18 L 981.81,454.91 Q 983.50,458.53 979.88,460.22 L 927.31,484.74 Q 923.68,486.43 921.99,482.80 L 853.11,335.07 Q 851.42,331.45 855.04,329.76 Z" />
    <path class="key-bg part-1" d="M 953.50,302.00 L 1011.50,302.00 Q 1015.50,302.00 1015.50,306.00 L 1015.50,364.00 Q 1015.50,368.00 1011.50,368.00 L 953.50,368.00 Q 949.50,368.00 949.50,364.00 L 949.50,306.00 Q 949.50,302.00 953.50,302.00 Z" />
    <path class="key-bg part-1" d="M 1023.50,319.50 L 1081.50,319.50 Q 1085.50,319.50 1085.50,323.50 L 1085.50,381.50 Q 1085.50,385.50 1081.50,385.50 L 1023.50,385.50 Q 1019.50,385.50 1019.50,381.50 L 1019.50,323.50 Q 1019.50,319.50 1023.50,319.50 Z" />
    <path class="key-bg part-0" d="M 402.49,560.10 L 455.05,535.58 Q 458.68,533.89 460.37,537.52 L 484.88,590.09 Q 486.57,593.71 482.95,595.40 L 430.38,619.91 Q 426.75,621.60 425.06,617.98 L 400.55,565.41 Q 398.86,561.79 402.49,560.10 Z" />
    <path class="key-bg part-0" d="M 465.93,530.51 L 518.49,506.00 Q 522.12,504.31 523.81,507.94 L 548.32,560.50 Q 550.01,564.13 546.39,565.82 L 493.82,590.33 Q 490.20,592.02 488.51,588.39 L 463.99,535.83 Q 462.30,532.20 465.93,530.51 Z" />
    <path class="key-bg part-0" d="M 365.51,480.79 L 418.07,456.28 Q 421.70,454.59 423.39,458.22 L 447.90,510.78 Q 449.59,514.41 445.97,516.10 L 393.40,540.61 Q 389.78,542.30 388.08,538.68 L 363.57,486.11 Q 361.88,482.49 365.51,480.79 Z" />
    <path class="key-bg part-0" d="M 444.94,446.52 L 495.17,417.52 Q 498.63,415.52 500.63,418.98 L 529.63,469.21 Q 531.63,472.67 528.17,474.67 L 477.94,503.67 Q 474.48,505.67 472.48,502.21 L 443.48,451.98 Q 441.48,448.52 444.94,446.52 Z" />
    <path class="key-bg part-1" d="M 736.50,418.48 L 786.73,447.48 Q 790.20,449.48 788.20,452.95 L 759.20,503.18 Q 757.20,506.64 753.73,504.64 L 703.50,475.64 Q 700.04,473.64 702.04,470.18 L 731.04,419.95 Q 733.04,416.48 736.50,418.48 Z" />
    <path class="key-bg part-1" d="M 819.75,454.87 L 872.32,479.38 Q 875.94,481.07 874.25,484.70 L 849.74,537.27 Q 848.05,540.89 844.42,539.20 L 791.86,514.69 Q 788.23,513.00 789.92,509.37 L 814.43,456.81 Q 816.12,453.18 819.75,454.87 Z" />
    <path class="key-bg part-1" d="M 719.33,504.59 L 771.89,529.10 Q 775.52,530.79 773.83,534.42 L 749.32,586.98 Q 747.63,590.61 744.00,588.92 L 691.44,564.41 Q 687.81,562.72 689.50,559.09 L 714.01,506.53 Q 715.70,502.90 719.33,504.59 Z" />
    <path class="key-bg part-1" d="M 782.77,534.17 L 835.34,558.69 Q 838.96,560.38 837.27,564.00 L 812.76,616.57 Q 811.07,620.19 807.44,618.50 L 754.88,593.99 Q 751.25,592.30 752.94,588.68 L 777.45,536.11 Q 779.15,532.48 782.77,534.17 Z" />
  </g>
  <g>
    <text class="key-index" x="55.00" y="78.36" font-size="26">0</text>
    <text class="key-part part-0" x="55.00" y="105.64" font-size="18">left</text>
    <text class="key-index" x="125.00" y="78.36" font-size="26">1</text>
    <text class="key-part part-0" x="125.00" y="105.64" font-size="18">left</text>
    <text class="key-index" x="195.00" y="60.86" font-size="26">2</text>
    <text class="key-part part-0" x="195.00" y="88.14" font-size="18">left</text>
    <text class="key-index" x="265.00" y="43.36" font-size="26">3</text>
    <text class="key-part part-0" x="265.00" y="70.64" font-size="18">left</text>
    <text class="key-index" x="335.00" y="43.36" font-size="26">4</text>
    <text class="key-part part-0" x="335.00" y="70.64" font-size="18">left</text>
    <text class="key-index" x="405.00" y="43.36" font-size="26">5</text>
    <text class="key-part part-0" x="405.00" y="70.64" font-size="18">left</text>
    <text class="key-index" x="842.50" y="43.36" font-size="26">6</text>
    <text class="key-part part-1" x="842.50" y="70.64" font-size="18">right</text>
    <text class="key-index" x="912.50" y="43.36" font-size="26">7</text>
    <text class="key-part part-1" x="912.50" y="70.64" font-size="18">right</text>
    <text class="key-index" x="982.50" y="43.36" font-size="26">8</text>
    <text class="key-part part-1" x="982.50" y="70.64" font-size="18">right</text>
    <text class="key-index" x="1052.50" y="60.86" font-size="26">9</text>
    <text class="key-part part-1" x="1052.50" y="88.14" font-size="18">right</text>
    <text class="key-index" x="1122.50" y="78.36" font-size="26">10</text>
    <text class="key-part part-1" x="1122.50" y="105.64" font-size="18">right</text>
    <text class="key-index" x="1192.50" y="78.36" font-size="26">11</text>
    <text class="key-part part-1" x="1192.50" y="105.64" font-size="18">right</text>
    <text class="key-index" x="55.00" y="148.36" font-size="26">12</text>
    <text class="key-part part-0" x="55.00" y="175.64" font-size="18">left</text>
    <text class="key-index" x="125.00" y="148.36" font-size="26">13</text>
    <text class="key-part part-0" x="125.00" y="175.64" font-size="18">left</text>
    <text class="key-index" x="195.00" y="130.86" font-size="26">14</text>
    <text class="key-part part-0" x="195.00" y="158.14" font-size="18">left</text>
    <text class="key-index" x="265.00" y="113.36" font-size="26">15</text>
    <text class="key-part part-0" x="265.00" y="140.64" font-size="18">left</text>
    <text class="key-index" x="335.00" y="113.36" font-size="26">16</text>
    <text class="key-part part-0" x="335.00" y="140.64" font-size="18">left</text>
    <text class="key-index" x="405.00" y="113.36" font-size="26">17</text>
    <text class="key-part part-0" x="405.00" y="140.64" font-size="18">left</text>
    <text class="key-index" x="842.50" y="113.36" font-size="26">18</text>
    <text class="key-part part-1" x="842.50" y="140.64" font-size="18">right</text>
    <text class="key-index" x="912.50" y="113.36" font-size="26">19</text>
    <text class="key-part part-1" x="912.50" y="140.64" font-size="18">right</text>
    <text class="key-index" x="982.50" y="113.36" font-size="26">20</text>
    <text class="key-part part-1" x="982.50" y="140.64" font-size="18">right</text>
    <text class="key-index" x="1052.50" y="130.86" font-size="26">21</text>
    <text class="key-part part-1" x="1052.50" y="158.14" font-size="18">right</text>
    <text class="key-index" x="1122.50" y="148.36" font-size="26">22</text>
    <text class="key-part part-1" x="1122.50" y="175.64" font-size="18">right</text>
    <text class="key-index" x="1192.50" y="148.36" font-size="26">23</text>
    <text class="key-part part-1" x="1192.50" y="175.64" font-size="18">right</text>
    <text class="key-index" x="55.00" y="218.36" font-size="26">24</text>
    <text class="key-part part-0" x="55.00" y="245.64" font-size="18">left</text>
    <text class="key-index" x="125.00" y="218.36" font-size="26">25</text>
    <text class="key-part part-0" x="125.00" y="245.64" font-size="18">left</text>
    <text class="key-index" x="195.00" y="200.86" font-size="26">26</text>
    <text class="key-part part-0" x="195.00" y="228.14" font-size="18">left</text>
    <text class="key-index" x="265.00" y="183.36" font-size="26">27</text>
    <text class="key-part part-0" x="265.00" y="210.64" font-size="18">left</text>
    <text class="key-index" x="335.00" y="183.36" font-size="26">28</text>
    <text class="key-part part-0" x="335.00" y="210.64" font-size="18">left</text>
    <text class="key-index" x="405.00" y="183.36" font-size="26">29</text>
    <text class="key-part part-0" x="405.00" y="210.64" font-size="18">left</text>
    <text class="key-index" x="842.50" y="183.36" font-size="26">30</text>
    <text class="key-part part-1" x="842.50" y="210.64" font-size="18">right</text>
    <text class="key-index" x="912.50" y="183.36" font-size="26">31</text>
    <text class="key-part part-1" x="912.50" y="210.64" font-size="18">right</text>
    <text class="key-index" x="982.50" y="183.36" font-size="26">32</text>
    <text class="key-part part-1" x="982.50" y="210.64" font-size="18">right</text>
    <text class="key-index" x="1052.50" y="200.86" font-size="26">33</text>
    <text class="key-part part-1" x="1052.50" y="228.14" font-size="18">right</text>
    <text class="key-index" x="1122.50" y="218.36" font-size="26">34</text>
    <text class="key-part part-1" x="1122.50" y="245.64" font-size="18">right</text>
    <text class="key-index" x="1192.50" y="218.36" font-size="26">35</text>
    <text class="key-part part-1" x="1192.50" y="245.64" font-size="18">right</text>
    <text class="key-index" x="55.00" y="288.36" font-size="26">36</text>
    <text class="key-part part-0" x="55.00" y="315.64" font-size="18">left</text>
    <text class="key-index" x="125.00" y="288.36" font-size="26">37</text>
    <text class="key-part part-0" x="125.00" y="315.64" font-size="18">left</text>
    <text class="key-index" x="195.00" y="270.86" font-size="26">38</text>
    <text class="key-part part-0" x="195.00" y="298.14" font-size="18">left</text>
    <text class="key-index" x="265.00" y="253.36" font-size="26">39</text>
    <text class="key-part part-0" x="265.00" y="280.64" font-size="18">left</text>
    <text class="key-index" x="335.00" y="253.36" font-size="26">40</text>
    <text class="key-part part-0" x="335.00" y="280.64" font-size="18">left</text>
    <text class="key-index" x="405.00" y="253.36" font-size="26">41</text>
    <text class="key-part part-0" x="405.00" y="280.64" font-size="18">left</text>
    <text class="key-index" x="842.50" y="253.36" font-size="26">42</text>
    <text class="key-part part-1" x="842.50" y="280.64" font-size="18">right</text>
    <text class="key-index" x="912.50" y="253.36" font-size="26">43</text>
    <text class="key-part part-1" x="912.50" y="280.64" font-size="18">right</text>
    <text class="key-index" x="982.50" y="253.36" font-size="26">44</text>
    <text class="key-part part-1" x="982.50" y="280.64" font-size="18">right</text>
    <text class="key-index" x="1052.50" y="270.86" font-size="26">45</text>
    <text class="key-part part-1" x="1052.50" y="298.14" font-size="18">right</text>
    <text class="key-index" x="1122.50" y="288.36" font-size="26">46</text>
    <text class="key-part part-1" x="1122.50" y="315.64" font-size="18">right</text>
    <text class="key-index" x="1192.50" y="288.36" font-size="26">47</text>
    <text class="key-part part-1" x="1192.50" y="315.64" font-size="18">right</text>
    <text class="key-index" x="195.00" y="340.86" font-size="26">48</text>
    <text class="key-part part-0" x="195.00" y="368.14" font-size="18">left</text>
    <text class="key-index" x="265.00" y="323.36" font-size="26">49</text>
    <text class="key-part part-0" x="265.00" y="350.64" font-size="18">left</text>
    <text class="key-index" x="320.36" y="381.94" font-size="26" transform="rotate(25 320.36 393.58)">50</text>
    <text class="key-part part-0" x="320.36" y="409.22" font-size="18" transform="rotate(25 320.36 393.58)">left</text>
    <text class="key-index" x="398.60" y="379.80" font-size="26" transform="rotate(25 398.60 391.44)">51</text>
    <text class="key-part part-0" x="398.60" y="407.08" font-size="18" transform="rotate(25 398.60 391.44)">left</text>
    <text class="key-index" x="839.23" y="381.21" font-size="26" transform="rotate(-25 839.23 392.85)">52</text>
    <text class="key-part part-1" x="839.23" y="408.49" font-size="18" transform="rotate(-25 839.23 392.85)">right</text>
    <text class="key-index" x="917.46" y="383.35" font-size="26" transform="rotate(-25 917.46 394.99)">53</text>
    <text class="key-part part-1" x="917.46" y="410.63" font-size="18" transform="rotate(-25 917.46 394.99)">right</text>
    <text class="key-index" x="982.50" y="323.36" font-size="26">54</text>
    <text class="key-part part-1" x="982.50" y="350.64" font-size="18">right</text>
    <text class="key-index" x="1052.50" y="340.86" font-size="26">55</text>
    <text class="key-part part-1" x="1052.50" y="368.14" font-size="18">right</text>
    <text class="key-index" x="442.72" y="566.11" font-size="26" transform="rotate(-25 442.72 577.75)">56</text>
    <text class="key-part part-0" x="442.72" y="593.39" font-size="18" transform="rotate(-25 442.72 577.75)">left</text>
    <text class="key-index" x="506.16" y="536.53" font-size="26" transform="rotate(-25 506.16 548.17)">57</text>
    <text class="key-part part-0" x="506.16" y="563.81" font-size="18" transform="rotate(-25 506.16 548.17)">left</text>
    <text class="key-index" x="405.74" y="486.81" font-size="26" transform="rotate(-25 405.74 498.45)">58</text>
    <text class="key-part part-0" x="405.74" y="514.09" font-size="18" transform="rotate(-25 405.74 498.45)">left</text>
    <text class="key-index" x="486.55" y="448.96" font-size="26" transform="rotate(-30 486.55 460.60)">59</text>
    <text class="key-part part-0" x="486.55" y="476.24" font-size="18" transform="rotate(-30 486.55 460.60)">left</text>
    <text class="key-index" x="745.12" y="449.92" font-size="26" transform="rotate(30 745.12 461.56)">60</text>
    <text class="key-part part-1" x="745.12" y="477.20" font-size="18" transform="rotate(30 745.12 461.56)">right</text>
    <text class="key-index" x="832.09" y="485.40" font-size="26" transform="rotate(25 832.09 497.04)">61</text>
    <text class="key-part part-1" x="832.09" y="512.68" font-size="18" transform="rotate(25 832.09 497.04)">right</text>
    <text class="key-index" x="731.67" y="535.12" font-size="26" transform="rotate(25 731.67 546.76)">62</text>
    <text class="key-part part-1" x="731.67" y="562.40" font-size="18" transform="rotate(25 731.67 546.76)">right</text>
    <text class="key-index" x="795.11" y="564.70" font-size="26" transform="rotate(25 795.11 576.34)">63</text>
    <text class="key-part part-1" x="795.11" y="591.98" font-size="18" transform="rotate(25 795.11 576.34)">right</text>
  </g>
</svg>
