<svg xmlns="http://www.w3.org/2000/svg" viewBox="0 0 1282.50 678.68">
  <style>
    .key-bg { fill: #f5f5f5; stroke: #d4d4d4; stroke-width: 1; }
    .key-index { fill: #171717; font-family: ui-monospace, SFMono-Regular, "SF Mono", Menlo, Consolas, "Liberation Mono", monospace; font-weight: 700; text-anchor: middle; dominant-baseline: central; }
    .key-part { font-family: system-ui, -apple-system, BlinkMacSystemFont, "Segoe UI", Roboto, sans-serif; text-anchor: middle; dominant-baseline: central; }
    @media (prefers-color-scheme: dark) {
      .key-bg { fill: #2a2a2a; stroke: #404040; }
      .key-index { fill: #e5e5e5; }
    }
    .key-bg.part-0 { stroke: #f59e0b; }
    .key-part.part-0 { fill: #f59e0b; }
    .key-bg.part-1 { stroke: #14b8a6; }
    .key-part.part-1 { fill: #14b8a6; }
  </style>
  <g>
    <path class="key-bg part-0" d="M 26.00,57.00 L 84.00,57.00 Q 88.00,57.00 88.00,61.00 L 88.00,119.00 Q 88.00,123.00 84.00,123.00 L 26.00,123.00 Q 22.00,123.00 22.00,119.00 L 22.00,61.00 Q 22.00,57.00 26.00,57.00 Z" />
    <path class="key-bg part-0" d="M 96.00,57.00 L 154.00,57.00 Q 158.00,57.00 158.00,61.00 L 158.00,119.00 Q 158.00,123.00 154.00,123.00 L 96.00,123.00 Q 92.00,123.00 92.00,119.00 L 92.00,61.00 Q 92.00,57.00 96.00,57.00 Z" />
    <path class="key-bg part-0" d="M 166.00,22.00 L 224.00,22.00 Q 228.00,22.00 228.00,26.00 L 228.00,84.00 Q 228.00,88.00 224.00,88.00 L 166.00,88.00 Q 162.00,88.00 162.00,84.00 L 162.00,26.00 Q 162.00,22.00 166.00,22.00 Z" />
    <path class="key-bg part-0" d="M 236.00,22.00 L 294.00,22.00 Q 298.00,22.00 298.00,26.00 L 298.00,84.00 Q 298.00,88.00 294.00,88.00 L 236.00,88.00 Q 232.00,88.00 232.00,84.00 L 232.00,26.00 Q 232.00,22.00 236.00,22.00 Z" />
    <path class="key-bg part-0" d="M 306.00,39.50 L 364.00,39.50 Q 368.00,39.50 368.00,43.50 L 368.00,101.50 Q 368.00,105.50 364.00,105.50 L 306.00,105.50 Q 302.00,105.50 302.00,101.50 L 302.00,43.50 Q 302.00,39.50 306.00,39.50 Z" />
    <path class="key-bg part-0" d="M 376.00,39.50 L 434.00,39.50 Q 438.00,39.50 438.00,43.50 L 438.00,101.50 Q 438.00,105.50 434.00,105.50 L 376.00,105.50 Q 372.00,105.50 372.00,101.50 L 372.00,43.50 Q 372.00,39.50 376.00,39.50 Z" />
    <path class="key-bg part-1" d="M 848.50,39.50 L 906.50,39.50 Q 910.50,39.50 910.50,43.50 L 910.50,101.50 Q 910.50,105.50 906.50,105.50 L 848.50,105.50 Q 844.50,105.50 844.50,101.50 L 844.50,43.50 Q 844.50,39.50 848.50,39.50 Z" />
    <path class="key-bg part-1" d="M 918.50,39.50 L 976.50,39.50 Q 980.50,39.50 980.50,43.50 L 980.50,101.50 Q 980.50,105.50 976.50,105.50 L 918.50,105.50 Q 914.50,105.50 914.50,101.50 L 914.50,43.50 Q 914.50,39.50 918.50,39.50 Z" />
    <path class="key-bg part-1" d="M 988.50,22.00 L 1046.50,22.00 Q 1050.50,22.00 1050.50,26.00 L 1050.50,84.00 Q 1050.50,88.00 1046.50,88.00 L 988.50,88.00 Q 984.50,88.00 984.50,84.00 L 984.50,26.00 Q 984.50,22.00 988.50,22.00 Z" />
    <path class="key-bg part-1" d="M 1058.50,22.00 L 1116.50,22.00 Q 1120.50,22.00 1120.50,26.00 L 1120.50,84.00 Q 1120.50,88.00 1116.50,88.00 L 1058.50,88.00 Q 1054.50,88.00 1054.50,84.00 L 1054.50,26.00 Q 1054.50,22.00 1058.50,22.00 Z" />
    <path class="key-bg part-1" d="M 1128.50,57.00 L 1186.50,57.00 Q 1190.50,57.00 1190.50,61.00 L 1190.50,119.00 Q 1190.50,123.00 1186.50,123.00 L 1128.50,123.00 Q 1124.50,123.00 1124.50,119.00 L 1124.50,61.00 Q 1124.50,57.00 1128.50,57.00 Z" />
    <path class="key-bg part-1" d="M 1198.50,57.00 L 1256.50,57.00 Q 1260.50,57.00 1260.50,61.00 L 1260.50,119.00 Q 1260.50,123.00 1256.50,123.00 L 1198.50,123.00 Q 1194.50,123.00 1194.50,119.00 L 1194.50,61.00 Q 1194.50,57.00 1198.50,57.00 Z" />
    <path class="key-bg part-0" d="M 26.00,127.00 L 84.00,127.00 Q 88.00,127.00 88.00,131.00 L 88.00,189.00 Q 88.00,193.00 84.00,193.00 L 26.00,193.00 Q 22.00,193.00 22.00,189.00 L 22.00,131.00 Q 22.00,127.00 26.00,127.00 Z" />
    <path class="key-bg part-0" d="M 96.00,127.00 L 154.00,127.00 Q 158.00,127.00 158.00,131.00 L 158.00,189.00 Q 158.00,193.00 154.00,193.00 L 96.00,193.00 Q 92.00,193.00 92.00,189.00 L 92.00,131.00 Q 92.00,127.00 96.00,127.00 Z" />
    <path class="key-bg part-0" d="M 166.00,92.00 L 224.00,92.00 Q 228.00,92.00 228.00,96.00 L 228.00,154.00 Q 228.00,158.00 224.00,158.00 L 166.00,158.00 Q 162.00,158.00 162.00,154.00 L 162.00,96.00 Q 162.00,92.00 166.00,92.00 Z" />
    <path class="key-bg part-0" d="M 236.00,92.00 L 294.00,92.00 Q 298.00,92.00 298.00,96.00 L 298.00,154.00 Q 298.00,158.00 294.00,158.00 L 236.00,158.00 Q 232.00,158.00 232.00,154.00 L 232.00,96.00 Q 232.00,92.00 236.00,92.00 Z" />
    <path class="key-bg part-0" d="M 306.00,109.50 L 364.00,109.50 Q 368.00,109.50 368.00,113.50 L 368.00,171.50 Q 368.00,175.50 364.00,175.50 L 306.00,175.50 Q 302.00,175.50 302.00,171.50 L 302.00,113.50 Q 302.00,109.50 306.00,109.50 Z" />
    <path class="key-bg part-0" d="M 376.00,109.50 L 434.00,109.50 Q 438.00,109.50 438.00,113.50 L 438.00,171.50 Q 438.00,175.50 434.00,175.50 L 376.00,175.50 Q 372.00,175.50 372.00,171.50 L 372.00,113.50 Q 372.00,109.50 376.00,109.50 Z" />
    <path class="key-bg part-1" d="M 848.50,109.50 L 906.50,109.50 Q 910.50,109.50 910.50,113.50 L 910.50,171.50 Q 910.50,175.50 906.50,175.50 L 848.50,175.50 Q 844.50,175.50 844.50,171.50 L 844.50,113.50 Q 844.50,109.50 848.50,109.50 Z" />
    <path class="key-bg part-1" d="M 918.50,109.50 L 976.50,109.50 Q 980.50,109.50 980.50,113.50 L 980.50,171.50 Q 980.50,175.50 976.50,175.50 L 918.50,175.50 Q 914.50,175.50 914.50,171.50 L 914.50,113.50 Q 914.50,109.50 918.50,109.50 Z" />
    <path class="key-bg part-1" d="M 988.50,92.00 L 1046.50,92.00 Q 1050.50,92.00 1050.50,96.00 L 1050.50,154.00 Q 1050.50,158.00 1046.50,158.00 L 988.50,158.00 Q 984.50,158.00 984.50,154.00 L 984.50,96.00 Q 984.50,92.00 988.50,92.00 Z" />
    <path class="key-bg part-1" d="M 1058.50,92.00 L 1116.50,92.00 Q 1120.50,92.00 1120.50,96.00 L 1120.50,154.00 Q 1120.50,158.00 1116.50,158.00 L 1058.50,158.00 Q 1054.50,158.00 1054.50,154.00 L 1054.50,96.00 Q 1054.50,92.00 1058.50,92.00 Z" />
    <path class="key-bg part-1" d="M 1128.50,127.00 L 1186.50,127.00 Q 1190.50,127.00 1190.50,131.00 L 1190.50,189.00 Q 1190.50,193.00 1186.50,193.00 L 1128.50,193.00 Q 1124.50,193.00 1124.50,189.00 L 1124.50,131.00 Q 1124.50,127.00 1128.50,127.00 Z" />
    <path class="key-bg part-1" d="M 1198.50,127.00 L 1256.50,127.00 Q 1260.50,127.00 1260.50,131.00 L 1260.50,189.00 Q 1260.50,193.00 1256.50,193.00 L 1198.50,193.00 Q 1194.50,193.00 1194.50,189.00 L 1194.50,131.00 Q 1194.50,127.00 1198.50,127.00 Z" />
    <path class="key-bg part-0" d="M 26.00,197.00 L 84.00,197.00 Q 88.00,197.00 88.00,201.00 L 88.00,259.00 Q 88.00,263.00 84.00,263.00 L 26.00,263.00 Q 22.00,263.00 22.00,259.00 L 22.00,201.00 Q 22.00,197.00 26.00,197.00 Z" />
    <path class="key-bg part-0" d="M 96.00,197.00 L 154.00,197.00 Q 158.00,197.00 158.00,201.00 L 158.00,259.00 Q 158.00,263.00 154.00,263.00 L 96.00,263.00 Q 92.00,263.00 92.00,259.00 L 92.00,201.00 Q 92.00,197.00 96.00,197.00 Z" />
    <path class="key-bg part-0" d="M 166.00,162.00 L 224.00,162.00 Q 228.00,162.00 228.00,166.00 L 228.00,224.00 Q 228.00,228.00 224.00,228.00 L 166.00,228.00 Q 162.00,228.00 162.00,224.00 L 162.00,166.00 Q 162.00,162.00 166.00,162.00 Z" />
    <path class="key-bg part-0" d="M 236.00,162.00 L 294.00,162.00 Q 298.00,162.00 298.00,166.00 L 298.00,224.00 Q 298.00,228.00 294.00,228.00 L 236.00,228.00 Q 232.00,228.00 232.00,224.00 L 232.00,166.00 Q 232.00,162.00 236.00,162.00 Z" />
    <path class="key-bg part-0" d="M 306.00,179.50 L 364.00,179.50 Q 368.00,179.50 368.00,183.50 L 368.00,241.50 Q 368.00,245.50 364.00,245.50 L 306.00,245.50 Q 302.00,245.50 302.00,241.50 L 302.00,183.50 Q 302.00,179.50 306.00,179.50 Z" />
    <path class="key-bg part-0" d="M 376.00,179.50 L 434.00,179.50 Q 438.00,179.50 438.00,183.50 L 438.00,241.50 Q 438.00,245.50 434.00,245.50 L 376.00,245.50 Q 372.00,245.50 372.00,241.50 L 372.00,183.50 Q 372.00,179.50 376.00,179.50 Z" />
    <path class="key-bg part-1" d="M 848.50,179.50 L 906.50,179.50 Q 910.50,179.50 910.50,183.50 L 910.50,241.50 Q 910.50,245.50 906.50,245.50 L 848.50,245.50 Q 844.50,245.50 844.50,241.50 L 844.50,183.50 Q 844.50,179.50 848.50,179.50 Z" />
    <path class="key-bg part-1" d="M 918.50,179.50 L 976.50,179.50 Q 980.50,179.50 980.50,183.50 L 980.50,241.50 Q 980.50,245.50 976.50,245.50 L 918.50,245.50 Q 914.50,245.50 914.50,241.50 L 914.50,183.50 Q 914.50,179.50 918.50,179.50 Z" />
    <path class="key-bg part-1" d="M 988.50,162.00 L 1046.50,162.00 Q 1050.50,162.00 1050.50,166.00 L 1050.50,224.00 Q 1050.50,228.00 1046.50,228.00 L 988.50,228.00 Q 984.50,228.00 984.50,224.00 L 984.50,166.00 Q 984.50,162.00 988.50,162.00 Z" />
    <path class="key-bg part-1" d="M 1058.50,162.00 L 1116.50,162.00 Q 1120.50,162.00 1120.50,166.00 L 1120.50,224.00 Q 1120.50,228.00 1116.50,228.00 L 1058.50,228.00 Q 1054.50,228.00 1054.50,224.00 L 1054.50,166.00 Q 1054.50,162.00 1058.50,162.00 Z" />
    <path class="key-bg part-1" d="M 1128.50,197.00 L 1186.50,197.00 Q 1190.50,197.00 1190.50,201.00 L 1190.50,259.00 Q 1190.50,263.00 1186.50,263.00 L 1128.50,263.00 Q 1124.50,263.00 1124.50,259.00 L 1124.50,201.00 Q 1124.50,197.00 1128.50,197.00 Z" />
    <path class="key-bg part-1" d="M 1198.50,197.00 L 1256.50,197.00 Q 1260.50,197.00 1260.50,201.00 L 1260.50,259.00 Q 1260.50,263.00 1256.50,263.00 L 1198.50,263.00 Q 1194.50,263.00 1194.50,259.00 L 1194.50,201.00 Q 1194.50,197.00 1198.50,197.00 Z" />
    <path class="key-bg part-0" d="M 26.00,267.00 L 84.00,267.00 Q 88.00,267.00 88.00,271.00 L 88.00,329.00 Q 88.00,333.00 84.00,333.00 L 26.00,333.00 Q 22.00,333.00 22.00,329.00 L 22.00,271.00 Q 22.00,267.00 26.00,267.00 Z" />
    <path class="key-bg part-0" d="M 96.00,267.00 L 154.00,267.00 Q 158.00,267.00 158.00,271.00 L 158.00,329.00 Q 158.00,333.00 154.00,333.00 L 96.00,333.00 Q 92.00,333.00 92.00,329.00 L 92.00,271.00 Q 92.00,267.00 96.00,267.00 Z" />
    <path class="key-bg part-0" d="M 166.00,232.00 L 224.00,232.00 Q 228.00,232.00 228.00,236.00 L 228.00,294.00 Q 228.00,298.00 224.00,298.00 L 166.00,298.00 Q 162.00,298.00 162.00,294.00 L 162.00,236.00 Q 162.00,232.00 166.00,232.00 Z" />
    <path class="key-bg part-0" d="M 236.00,232.00 L 294.00,232.00 Q 298.00,232.00 298.00,236.00 L 298.00,294.00 Q 298.00,298.00 294.00,298.00 L 236.00,298.00 Q 232.00,298.00 232.00,294.00 L 232.00,236.00 Q 232.00,232.00 236.00,232.00 Z" />
    <path class="key-bg part-0" d="M 306.00,249.50 L 364.00,249.50 Q 368.00,249.50 368.00,253.50 L 368.00,311.50 Q 368.00,315.50 364.00,315.50 L 306.00,315.50 Q 302.00,315.50 302.00,311.50 L 302.00,253.50 Q 302.00,249.50 306.00,249.50 Z" />
    <path class="key-bg part-0" d="M 376.00,249.50 L 434.00,249.50 Q 438.00,249.50 438.00,253.50 L 438.00,311.50 Q 438.00,315.50 434.00,315.50 L 376.00,315.50 Q 372.00,315.50 372.00,311.50 L 372.00,253.50 Q 372.00,249.50 376.00,249.50 Z" />
    <path class="key-bg part-1" d="M 848.50,249.50 L 906.50,249.50 Q 910.50,249.50 910.50,253.50 L 910.50,311.50 Q 910.50,315.50 906.50,315.50 L 848.50,315.50 Q 844.50,315.50 844.50,311.50 L 844.50,253.50 Q 844.50,249.50 848.50,249.50 Z" />
    <path class="key-bg part-1" d="M 918.50,249.50 L 976.50,249.50 Q 980.50,249.50 980.50,253.50 L 980.50,311.50 Q 980.50,315.50 976.50,315.50 L 918.50,315.50 Q 914.50,315.50 914.50,311.50 L 914.50,253.50 Q 914.50,249.50 918.50,249.50 Z" />
    <path class="key-bg part-1" d="M 988.50,232.00 L 1046.50,232.00 Q 1050.50,232.00 1050.50,236.00 L 1050.50,294.00 Q 1050.50,298.00 1046.50,298.00 L 988.50,298.00 Q 984.50,298.00 984.50,294.00 L 984.50,236.00 Q 984.50,232.00 988.50,232.00 Z" />
    <path class="key-bg part-1" d="M 1058.50,232.00 L 1116.50,232.00 Q 1120.50,232.00 1120.50,236.00 L 1120.50,294.00 Q 1120.50,298.00 1116.50,298.00 L 1058.50,298.00 Q 1054.50,298.00 1054.50,294.00 L 1054.50,236.00 Q 1054.50,232.00 1058.50,232.00 Z" />
    <path class="key-bg part-1" d="M 1128.50,267.00 L 1186.50,267.00 Q 1190.50,267.00 1190.50,271.00 L 1190.50,329.00 Q 1190.50,333.00 1186.50,333.00 L 1128.50,333.00 Q 1124.50,333.00 1124.50,329.00 L 1124.50,271.00 Q 1124.50,267.00 1128.50,267.00 Z" />
    <path class="key-bg part-1" d="M 1198.50,267.00 L 1256.50,267.00 Q 1260.50,267.00 1260.50,271.00 L 1260.50,329.00 Q 1260.50,333.00 1256.50,333.00 L 1198.50,333.00 Q 1194.50,333.00 1194.50,329.00 L 1194.50,271.00 Q 1194.50,267.00 1198.50,267.00 Z" />
    <path class="key-bg part-0" d="M 166.00,302.00 L 224.00,302.00 Q 228.00,302.00 228.00,306.00 L 228.00,364.00 Q 228.00,368.00 224.00,368.00 L 166.00,368.00 Q 162.00,368.00 162.00,364.00 L 162.00,306.00 Q 162.00,302.00 166.00,302.00 Z" />
    <path class="key-bg part-0" d="M 236.00,302.00 L 294.00,302.00 Q 298.00,302.00 298.00,306.00 L 298.00,364.00 Q 298.00,368.00 294.00,368.00 L 236.00,368.00 Q 232.00,368.00 232.00,364.00 L 232.00,306.00 Q 232.00,302.00 236.00,302.00 Z" />
    <path class="key-bg part-0" d="M 335.43,325.66 L 385.66,354.66 Q 389.12,356.66 387.12,360.13 L 305.62,501.29 Q 303.62,504.76 300.16,502.76 L 249.93,473.76 Q 246.46,471.76 248.46,468.29 L 329.96,327.13 Q 331.96,323.66 335.43,325.66 Z" />
    <path class="key-bg part-0" d="M 396.05,360.66 L 446.28,389.66 Q 449.74,391.66 447.74,395.13 L 383.74,505.98 Q 381.74,509.44 378.28,507.44 L 328.05,478.44 Q 324.58,476.44 326.58,472.98 L 390.58,362.13 Q 392.58,358.66 396.05,360.66 Z" />
    <path class="key-bg part-1" d="M 824.45,386.36 L 874.68,357.36 Q 878.15,355.36 880.15,358.82 L 944.15,469.67 Q 946.15,473.13 942.68,475.13 L 892.45,504.13 Q 888.99,506.13 886.99,502.67 L 822.99,391.82 Q 820.99,388.36 824.45,386.36 Z" />
    <path class="key-bg part-1" d="M 885.08,351.36 L 935.31,322.36 Q 938.77,320.36 940.77,323.82 L 1022.27,464.98 Q 1024.27,468.45 1020.81,470.45 L 970.58,499.45 Q 967.11,501.45 965.11,497.98 L 883.61,356.82 Q 881.61,353.36 885.08,351.36 Z" />
    <path class="key-bg part-1" d="M 988.50,302.00 L 1046.50,302.00 Q 1050.50,302.00 1050.50,306.00 L 1050.50,364.00 Q 1050.50,368.00 1046.50,368.00 L 988.50,368.00 Q 984.50,368.00 984.50,364.00 L 984.50,306.00 Q 984.50,302.00 988.50,302.00 Z" />
    <path class="key-bg part-1" d="M 1058.50,302.00 L 1116.50,302.00 Q 1120.50,302.00 1120.50,306.00 L 1120.50,364.00 Q 1120.50,368.00 1116.50,368.00 L 1058.50,368.00 Q 1054.50,368.00 1054.50,364.00 L 1054.50,306.00 Q 1054.50,302.00 1058.50,302.00 Z" />
    <path class="key-bg part-0" d="M 322.51,526.59 L 377.01,506.75 Q 380.77,505.38 382.14,509.14 L 401.97,563.64 Q 403.34,567.40 399.58,568.77 L 345.08,588.61 Q 341.32,589.98 339.95,586.22 L 320.12,531.71 Q 318.75,527.96 322.51,526.59 Z" />
    <path class="key-bg part-0" d="M 388.29,502.65 L 442.79,482.81 Q 446.55,481.44 447.91,485.20 L 467.75,539.70 Q 469.12,543.46 465.36,544.83 L 410.86,564.67 Q 407.10,566.03 405.73,562.28 L 385.89,507.77 Q 384.53,504.01 388.29,502.65 Z" />
    <path class="key-bg part-0" d="M 412.23,568.42 L 466.73,548.59 Q 470.49,547.22 471.86,550.98 L 491.69,605.48 Q 493.06,609.24 489.30,610.61 L 434.80,630.44 Q 431.04,631.81 429.67,628.05 L 409.84,573.55 Q 408.47,569.79 412.23,568.42 Z" />
    <path class="key-bg part-0" d="M 346.45,592.37 L 400.95,572.53 Q 404.71,571.16 406.08,574.92 L 425.91,629.42 Q 427.28,633.18 423.52,634.55 L 369.02,654.39 Q 365.26,655.75 363.89,652.00 L 344.06,597.49 Q 342.69,593.73 346.45,592.37 Z" />
    <path class="key-bg part-1" d="M 891.98,507.11 L 946.49,526.95 Q 950.25,528.32 948.88,532.08 L 929.04,586.58 Q 927.67,590.34 923.91,588.97 L 869.41,569.13 Q 865.65,567.76 867.02,564.01 L 886.86,509.50 Q 888.23,505.74 891.98,507.11 Z" />
    <path class="key-bg part-1" d="M 868.04,572.89 L 922.55,592.73 Q 926.30,594.10 924.94,597.86 L 905.10,652.36 Q 903.73,656.12 899.97,654.75 L 845.47,634.91 Q 841.71,633.54 843.08,629.78 L 862.92,575.28 Q 864.28,571.52 868.04,572.89 Z" />
    <path class="key-bg part-1" d="M 802.26,548.95 L 856.77,568.79 Q 860.53,570.16 859.16,573.91 L 839.32,628.42 Q 837.95,632.17 834.19,630.81 L 779.69,610.97 Q 775.93,609.60 777.30,605.84 L 797.14,551.34 Q 798.51,547.58 802.26,548.95 Z" />
    <path class="key-bg part-1" d="M 826.21,483.17 L 880.71,503.01 Q 884.47,504.38 883.10,508.14 L 863.26,562.64 Q 861.89,566.40 858.14,565.03 L 803.63,545.19 Q 799.87,543.82 801.24,540.06 L 821.08,485.56 Q 822.45,481.80 826.21,483.17 Z" />
  </g>
  <g>
    <text class="key-index" x="55.00" y="78.36" font-size="26">0</text>
    <text class="key-part part-0" x="55.00" y="105.64" font-size="18">left</text>
    <text class="key-index" x="125.00" y="78.36" font-size="26">1</text>
    <text class="key-part part-0" x="125.00" y="105.64" font-size="18">left</text>
    <text class="key-index" x="195.00" y="43.36" font-size="26">2</text>
    <text class="key-part part-0" x="195.00" y="70.64" font-size="18">left</text>
    <text class="key-index" x="265.00" y="43.36" font-size="26">3</text>
    <text class="key-part part-0" x="265.00" y="70.64" font-size="18">left</text>
    <text class="key-index" x="335.00" y="60.86" font-size="26">4</text>
    <text class="key-part part-0" x="335.00" y="88.14" font-size="18">left</text>
    <text class="key-index" x="405.00" y="60.86" font-size="26">5</text>
    <text class="key-part part-0" x="405.00" y="88.14" font-size="18">left</text>
    <text class="key-index" x="877.50" y="60.86" font-size="26">6</text>
    <text class="key-part part-1" x="877.50" y="88.14" font-size="18">right</text>
    <text class="key-index" x="947.50" y="60.86" font-size="26">7</text>
    <text class="key-part part-1" x="947.50" y="88.14" font-size="18">right</text>
    <text class="key-index" x="1017.50" y="43.36" font-size="26">8</text>
    <text class="key-part part-1" x="1017.50" y="70.64" font-size="18">right</text>
    <text class="key-index" x="1087.50" y="43.36" font-size="26">9</text>
    <text class="key-part part-1" x="1087.50" y="70.64" font-size="18">right</text>
    <text class="key-index" x="1157.50" y="78.36" font-size="26">10</text>
    <text class="key-part part-1" x="1157.50" y="105.64" font-size="18">right</text>
    <text class="key-index" x="1227.50" y="78.36" font-size="26">11</text>
    <text class="key-part part-1" x="1227.50" y="105.64" font-size="18">right</text>
    <text class="key-index" x="55.00" y="148.36" font-size="26">12</text>
    <text class="key-part part-0" x="55.00" y="175.64" font-size="18">left</text>
    <text class="key-index" x="125.00" y="148.36" font-size="26">13</text>
    <text class="key-part part-0" x="125.00" y="175.64" font-size="18">left</text>
    <text class="key-index" x="195.00" y="113.36" font-size="26">14</text>
    <text class="key-part part-0" x="195.00" y="140.64" font-size="18">left</text>
    <text class="key-index" x="265.00" y="113.36" font-size="26">15</text>
    <text class="key-part part-0" x="265.00" y="140.64" font-size="18">left</text>
    <text class="key-index" x="335.00" y="130.86" font-size="26">16</text>
    <text class="key-part part-0" x="335.00" y="158.14" font-size="18">left</text>
    <text class="key-index" x="405.00" y="130.86" font-size="26">17</text>
    <text class="key-part part-0" x="405.00" y="158.14" font-size="18">left</text>
    <text class="key-index" x="877.50" y="130.86" font-size="26">18</text>
    <text class="key-part part-1" x="877.50" y="158.14" font-size="18">right</text>
    <text class="key-index" x="947.50" y="130.86" font-size="26">19</text>
    <text class="key-part part-1" x="947.50" y="158.14" font-size="18">right</text>
    <text class="key-index" x="1017.50" y="113.36" font-size="26">20</text>
    <text class="key-part part-1" x="1017.50" y="140.64" font-size="18">right</text>
    <text class="key-index" x="1087.50" y="113.36" font-size="26">21</text>
    <text class="key-part part-1" x="1087.50" y="140.64" font-size="18">right</text>
    <text class="key-index" x="1157.50" y="148.36" font-size="26">22</text>
    <text class="key-part part-1" x="1157.50" y="175.64" font-size="18">right</text>
    <text class="key-index" x="1227.50" y="148.36" font-size="26">23</text>
    <text class="key-part part-1" x="1227.50" y="175.64" font-size="18">right</text>
    <text class="key-index" x="55.00" y="218.36" font-size="26">24</text>
    <text class="key-part part-0" x="55.00" y="245.64" font-size="18">left</text>
    <text class="key-index" x="125.00" y="218.36" font-size="26">25</text>
    <text class="key-part part-0" x="125.00" y="245.64" font-size="18">left</text>
    <text class="key-index" x="195.00" y="183.36" font-size="26">26</text>
    <text class="key-part part-0" x="195.00" y="210.64" font-size="18">left</text>
    <text class="key-index" x="265.00" y="183.36" font-size="26">27</text>
    <text class="key-part part-0" x="265.00" y="210.64" font-size="18">left</text>
    <text class="key-index" x="335.00" y="200.86" font-size="26">28</text>
    <text class="key-part part-0" x="335.00" y="228.14" font-size="18">left</text>
    <text class="key-index" x="405.00" y="200.86" font-size="26">29</text>
    <text class="key-part part-0" x="405.00" y="228.14" font-size="18">left</text>
    <text class="key-index" x="877.50" y="200.86" font-size="26">30</text>
    <text class="key-part part-1" x="877.50" y="228.14" font-size="18">right</text>
    <text class="key-index" x="947.50" y="200.86" font-size="26">31</text>
    <text class="key-part part-1" x="947.50" y="228.14" font-size="18">right</text>
    <text class="key-index" x="1017.50" y="183.36" font-size="26">32</text>
    <text class="key-part part-1" x="1017.50" y="210.64" font-size="18">right</text>
    <text class="key-index" x="1087.50" y="183.36" font-size="26">33</text>
    <text class="key-part part-1" x="1087.50" y="210.64" font-size="18">right</text>
    <text class="key-index" x="1157.50" y="218.36" font-size="26">34</text>
    <text class="key-part part-1" x="1157.50" y="245.64" font-size="18">right</text>
    <text class="key-index" x="1227.50" y="218.36" font-size="26">35</text>
    <text class="key-part part-1" x="1227.50" y="245.64" font-size="18">right</text>
    <text class="key-index" x="55.00" y="288.36" font-size="26">36</text>
    <text class="key-part part-0" x="55.00" y="315.64" font-size="18">left</text>
    <text class="key-index" x="125.00" y="288.36" font-size="26">37</text>
    <text class="key-part part-0" x="125.00" y="315.64" font-size="18">left</text>
    <text class="key-index" x="195.00" y="253.36" font-size="26">38</text>
    <text class="key-part part-0" x="195.00" y="280.64" font-size="18">left</text>
    <text class="key-index" x="265.00" y="253.36" font-size="26">39</text>
    <text class="key-part part-0" x="265.00" y="280.64" font-size="18">left</text>
    <text class="key-index" x="335.00" y="270.86" font-size="26">40</text>
    <text class="key-part part-0" x="335.00" y="298.14" font-size="18">left</text>
    <text class="key-index" x="405.00" y="270.86" font-size="26">41</text>
    <text class="key-part part-0" x="405.00" y="298.14" font-size="18">left</text>
    <text class="key-index" x="877.50" y="270.86" font-size="26">42</text>
    <text class="key-part part-1" x="877.50" y="298.14" font-size="18">right</text>
    <text class="key-index" x="947.50" y="270.86" font-size="26">43</text>
    <text class="key-part part-1" x="947.50" y="298.14" font-size="18">right</text>
    <text class="key-index" x="1017.50" y="253.36" font-size="26">44</text>
    <text class="key-part part-1" x="1017.50" y="280.64" font-size="18">right</text>
    <text class="key-index" x="1087.50" y="253.36" font-size="26">45</text>
    <text class="key-part part-1" x="1087.50" y="280.64" font-size="18">right</text>
    <text class="key-index" x="1157.50" y="288.36" font-size="26">46</text>
    <text class="key-part part-1" x="1157.50" y="315.64" font-size="18">right</text>
    <text class="key-index" x="1227.50" y="288.36" font-size="26">47</text>
    <text class="key-part part-1" x="1227.50" y="315.64" font-size="18">right</text>
    <text class="key-index" x="195.00" y="323.36" font-size="26">48</text>
    <text class="key-part part-0" x="195.00" y="350.64" font-size="18">left</text>
    <text class="key-index" x="265.00" y="323.36" font-size="26">49</text>
    <text class="key-part part-0" x="265.00" y="350.64" font-size="18">left</text>
    <text class="key-index" x="317.79" y="402.57" font-size="26" transform="rotate(30 317.79 414.21)">50</text>
    <text class="key-part part-0" x="317.79" y="429.85" font-size="18" transform="rotate(30 317.79 414.21)">left</text>
    <text class="key-index" x="387.16" y="422.41" font-size="26" transform="rotate(30 387.16 434.05)">51</text>
    <text class="key-part part-0" x="387.16" y="449.69" font-size="18" transform="rotate(30 387.16 434.05)">left</text>
    <text class="key-index" x="883.57" y="419.11" font-size="26" transform="rotate(-30 883.57 430.75)">52</text>
    <text class="key-part part-1" x="883.57" y="446.39" font-size="18" transform="rotate(-30 883.57 430.75)">right</text>
    <text class="key-index" x="952.94" y="399.26" font-size="26" transform="rotate(-30 952.94 410.90)">53</text>
    <text class="key-part part-1" x="952.94" y="426.54" font-size="18" transform="rotate(-30 952.94 410.90)">right</text>
    <text class="key-index" x="1017.50" y="323.36" font-size="26">54</text>
    <text class="key-part part-1" x="1017.50" y="350.64" font-size="18">right</text>
    <text class="key-index" x="1087.50" y="323.36" font-size="26">55</text>
    <text class="key-part part-1" x="1087.50" y="350.64" font-size="18">right</text>
    <text class="key-index" x="361.04" y="536.04" font-size="26" transform="rotate(-20 361.04 547.68)">56</text>
    <text class="key-part part-0" x="361.04" y="563.32" font-size="18" transform="rotate(-20 361.04 547.68)">left</text>
    <text class="key-index" x="426.82" y="512.10" font-size="26" transform="rotate(-20 426.82 523.74)">57</text>
    <text class="key-part part-0" x="426.82" y="539.38" font-size="18" transform="rotate(-20 426.82 523.74)">left</text>
    <text class="key-index" x="450.76" y="577.88" font-size="26" transform="rotate(-20 450.76 589.52)">58</text>
    <text class="key-part part-0" x="450.76" y="605.16" font-size="18" transform="rotate(-20 450.76 589.52)">left</text>
    <text class="key-index" x="384.99" y="601.82" font-size="26" transform="rotate(-20 384.99 613.46)">59</text>
    <text class="key-part part-0" x="384.99" y="629.10" font-size="18" transform="rotate(-20 384.99 613.46)">left</text>
    <text class="key-index" x="907.95" y="536.40" font-size="26" transform="rotate(20 907.95 548.04)">60</text>
    <text class="key-part part-1" x="907.95" y="563.68" font-size="18" transform="rotate(20 907.95 548.04)">right</text>
    <text class="key-index" x="884.01" y="602.18" font-size="26" transform="rotate(20 884.01 613.82)">61</text>
    <text class="key-part part-1" x="884.01" y="629.46" font-size="18" transform="rotate(20 884.01 613.82)">right</text>
    <text class="key-index" x="818.23" y="578.24" font-size="26" transform="rotate(20 818.23 589.88)">62</text>
    <text class="key-part part-1" x="818.23" y="605.52" font-size="18" transform="rotate(20 818.23 589.88)">right</text>
    <text class="key-index" x="842.17" y="512.46" font-size="26" transform="rotate(20 842.17 524.10)">63</text>
    <text class="key-part part-1" x="842.17" y="539.74" font-size="18" transform="rotate(20 842.17 524.10)">right</text>
  </g>
</svg>
